<svg xmlns="http://www.w3.org/2000/svg" viewBox="0 0 320 160" width="320" height="160">
  <defs>
    <linearGradient id="v1-body" x1="0" y1="0" x2="0" y2="1">
      <stop offset="0" stop-color="#2E78D6"/>
      <stop offset="1" stop-color="#0B3F8E"/>
    </linearGradient>
    <linearGradient id="v1-cab" x1="0" y1="0" x2="0" y2="1">
      <stop offset="0" stop-color="#1F6FEB"/>
      <stop offset="1" stop-color="#0B3F8E"/>
    </linearGradient>
    <clipPath id="v1-clip"><rect x="120" y="38" width="180" height="92" rx="6"/></clipPath>
  </defs>
  <ellipse cx="160" cy="148" rx="120" ry="6" fill="rgba(11,63,142,.18)"/>
  <rect x="120" y="38" width="180" height="92" rx="6" fill="url(#v1-body)"/>
  <rect x="120" y="38" width="180" height="6" fill="rgba(255,255,255,.18)"/>
  <rect x="120" y="124" width="180" height="6" fill="rgba(0,0,0,.25)"/>
  <g clip-path="url(#v1-clip)">
    <g transform="rotate(-22 210 84)">
      <rect x="60" y="62" width="320" height="3" fill="#FFFFFF" opacity="0.35"/>
      <rect x="60" y="68" width="320" height="6" fill="#1F6FEB" opacity="0.7"/>
      <rect x="60" y="78" width="320" height="3" fill="#FF5147"/>
      <rect x="60" y="86" width="320" height="2" fill="#FFFFFF" opacity="0.4"/>
    </g>
  </g>
  <rect x="184" y="64" width="64" height="28" rx="3" fill="#fff"/>
  <g fill="#0B3F8E" transform="translate(190 71) scale(.75)">
    <path d="M0 0h6.5c3 0 4.7 1.4 4.7 3.8 0 1.3-.7 2.4-1.9 3 1.5.5 2.4 1.8 2.4 3.5 0 2.7-1.9 4.2-5.1 4.2H0V0Zm3.2 2.7v3h3c1.1 0 1.8-.5 1.8-1.5s-.7-1.5-1.8-1.5h-3Zm0 5.8v3.3h3.3c1.2 0 2-.6 2-1.7 0-1-.8-1.6-2-1.6H3.2Z"/>
    <path d="M13 0h10v2.9h-6.8v2.8h6.1v2.8h-6.1v3.1h7v2.9H13V0Z"/>
    <path d="M25 14.5V0h3.2l4.2 6.8L36.6 0h3.2v14.5h-3.3V6.1L33 11.5h-1.2l-3.5-5.4v8.4H25Z"/>
    <path d="M49.3 14.8c-4.2 0-7.3-3.1-7.3-7.5s3.1-7.5 7.3-7.5 7.3 3.1 7.3 7.5-3.1 7.5-7.3 7.5Zm0-3c2.3 0 4-1.8 4-4.5s-1.7-4.5-4-4.5-4 1.8-4 4.5 1.7 4.5 4 4.5Z"/>
    <path d="M59 0h3.3v11.5h6.6v3H59V0Z"/>
  </g>
  <path d="M 36 130 L 36 78 Q 36 56 56 56 L 110 56 Q 124 56 124 70 L 124 130 Z" fill="url(#v1-cab)"/>
  <path d="M 50 78 Q 50 66 62 66 L 110 66 Q 116 66 116 72 L 116 96 L 50 96 Z" fill="#A8CFFF"/>
  <path d="M 50 78 Q 50 66 62 66 L 110 66 Q 116 66 116 72 L 116 96 L 50 96 Z" fill="rgba(255,255,255,.25)"/>
  <rect x="30" y="80" width="6" height="14" rx="2" fill="#0B3F8E"/>
  <rect x="36" y="106" width="8" height="10" rx="2" fill="#FFD23F"/>
  <rect x="32" y="120" width="14" height="10" rx="2" fill="#0E1530"/>
  <circle cx="78" cy="132" r="14" fill="#0A0F1F"/>
  <circle cx="78" cy="132" r="7" fill="#94A3B8"/>
  <circle cx="78" cy="132" r="3" fill="#475569"/>
  <circle cx="220" cy="132" r="14" fill="#0A0F1F"/>
  <circle cx="220" cy="132" r="7" fill="#94A3B8"/>
  <circle cx="220" cy="132" r="3" fill="#475569"/>
  <circle cx="252" cy="132" r="14" fill="#0A0F1F"/>
  <circle cx="252" cy="132" r="7" fill="#94A3B8"/>
  <circle cx="252" cy="132" r="3" fill="#475569"/>
</svg>
